<svg xmlns="http://www.w3.org/2000/svg" xmlns:xlink="http://www.w3.org/1999/xlink" width="94" height="68"><defs><path id="a" d="M156.538 45.644v1.04a6.347 6.347 0 0 1-1.847 3.98L127.708 77.67a6.338 6.338 0 0 1-3.862 1.839h-1.272a6.34 6.34 0 0 1-3.862-1.839L91.728 50.664a6.353 6.353 0 0 1 0-9l9.11-9.117-2.136-2.138a3.171 3.171 0 0 0-4.498 0L80.711 43.913a3.177 3.177 0 0 0-.043 4.453l-.002.003.048.047 24.733 24.754-4.497 4.5a6.339 6.339 0 0 1-3.863 1.84h-1.27a6.337 6.337 0 0 1-3.863-1.84L64.971 50.665a6.353 6.353 0 0 1 0-9l26.983-27.008a6.336 6.336 0 0 1 4.498-1.869c1.626 0 3.252.622 4.498 1.87l26.986 27.006a6.353 6.353 0 0 1 0 9l-9.11 9.117 2.136 2.138a3.171 3.171 0 0 0 4.498 0l13.49-13.504a3.177 3.177 0 0 0 .046-4.453l.002-.002-.047-.048-24.737-24.754 4.498-4.5a6.344 6.344 0 0 1 8.996 0l26.983 27.006a6.347 6.347 0 0 1 1.847 3.98zm-46.707-4.095l-2.362 2.364a3.178 3.178 0 0 0 0 4.501l2.362 2.364 2.361-2.364a3.178 3.178 0 0 0 0-4.501l-2.361-2.364z"/></defs><use fill="#346CB0" fill-rule="evenodd" transform="translate(-63 -12)" xlink:href="#a"/></svg>