
<svg width="24" height="26" viewBox="0 0 181 173" fill="none" xmlns="http://www.w3.org/2000/svg">
<path d="M40.7553 135.41C40.7553 146.13 31.632 154.819 20.3777 154.819C9.12337 154.819 0 146.13 0 135.41C0 124.689 9.12337 116 20.3777 116C31.632 116 40.7553 124.689 40.7553 135.41Z" fill="black"/>
<path d="M40.7558 44.4097C40.7558 55.1294 31.6318 63.8194 20.3775 63.8194C9.1229 63.8194 0 55.1294 0 44.4097C0 33.69 9.1229 25 20.3775 25C31.6318 25 40.7558 33.69 40.7558 44.4097Z" fill="black"/>
<path d="M25 135H60" stroke="black" stroke-width="15" stroke-linecap="round"/>
<path d="M25 44H60" stroke="black" stroke-width="15" stroke-linecap="round"/>
<path d="M20 165L20 9" stroke="black" stroke-width="15" stroke-linecap="round"/>
<path d="M102.723 24.7354H170V17.7544C170 14.6827 167.583 12.1695 164.629 12.1695H124.343L109.571 1.97729C108.631 1.41878 107.692 1 106.617 1H81.3715C78.4171 1 76 3.51307 76 6.58477V74.9987C76 75.2774 93.3229 31.2976 93.3229 31.2976C94.9343 27.3883 98.56 24.7354 102.723 24.7354Z" fill="black"/>
<path d="M181 35.7143C181 32.7143 178.98 30.2857 176.152 30H102.759C100.739 30 98.988 31.2857 98.18 33.1429L80 80H162.146L180.462 38.2856C180.866 37.4285 181 36.5713 181 35.7143Z" fill="black"/>
<path d="M102.723 116.735H170V109.754C170 106.683 167.583 104.17 164.629 104.17H124.343L109.571 93.9773C108.631 93.4188 107.692 93 106.617 93H81.3715C78.4171 93 76 95.5131 76 98.5848V166.999C76 167.277 93.3229 123.298 93.3229 123.298C94.9343 119.388 98.56 116.735 102.723 116.735Z" fill="black"/>
<path d="M181 127.714C181 124.714 178.98 122.286 176.152 122H102.759C100.739 122 98.988 123.286 98.18 125.143L80 172H162.146L180.462 130.286C180.866 129.429 181 128.571 181 127.714Z" fill="black"/>
</svg>
