<svg xmlns="http://www.w3.org/2000/svg" height="480" width="640" viewBox="0 0 640 480"><defs><style>.cls-1{fill:#02733b;}.cls-2{fill:#fff;}</style></defs><g id="Layer_2" data-name="Layer 2"><g id="Layer_1-2" data-name="Layer 1"><path class="cls-1" d="M640,0V480H0c.1-3,.3-6.08.3-9.12Q.32,240.44.31,10V.35h631C634.19.34,637.09.12,640,0ZM182.63,268.9l-1-2.14c-1.66,1.17-4.14,1.9-4.86,3.58-6.57,15.31-14.59,30.2-18.82,46.33-9.41,35.89,8.48,67.81,41,76.65,14.48,3.94,28.89,1.9,43.36-.22,32.23-4.73,55-22.74,66.58-57.89,6.83-20.79,11.18-42,11.45-64l18.07,2.74c.52,10.83-8,21.91.3,34.34,3.67-12.78,6.85-23.81,10.09-35.06,3,0,5.52.16,8,0,27-2,53.66-6.34,78.91-18.13,24.5-11.44,41.92-30.25,47.29-60.44,1.22-6.81,1.59-15.12-.78-21.19-6.6-16.92-29.62-28.1-45.09-21.45a131,131,0,0,0-31.35,19.57c-21.52,17.85-38,41.13-52.32,66.4-1.28,2.25-3.79,5.25-5.65,5.18a186.2,186.2,0,0,1-26.52-2.88c-2.43-.45-5-3.68-6.47-6.34-3.41-6-6.22-12.43-10-20.18-3.84,9.12-6.79,16.49-10,23.69-1.69,3.72-1.52,6.65.48,10.32,8.62,15.78,11.83,33.16,11.81,51.59,0,27.17-9.39,46.61-33.24,56.16-20.07,8-40.46,10-61.35,7.14a77.6,77.6,0,0,1-15.7-4.33c-24.32-8.83-33.62-28.76-25.82-56.37C174.19,290.68,178.72,279.9,182.63,268.9ZM386.27,128.83l15.32-25.52-20.8-18.86-15.07,25Z"/><path class="cls-2" d="M182.63,268.9c-3.91,11-8.44,21.78-11.62,33-7.8,27.61,1.5,47.54,25.82,56.37a77.6,77.6,0,0,0,15.7,4.33c20.89,2.88,41.28.89,61.35-7.14,23.85-9.55,33.22-29,33.24-56.16,0-18.43-3.19-35.81-11.81-51.59-2-3.67-2.17-6.6-.48-10.32,3.25-7.2,6.2-14.57,10-23.69,3.79,7.75,6.6,14.18,10,20.18,1.51,2.66,4,5.89,6.47,6.34a186.2,186.2,0,0,0,26.52,2.88c1.86.07,4.37-2.93,5.65-5.18,14.33-25.27,30.8-48.55,52.32-66.4A131,131,0,0,1,437.19,152c15.47-6.65,38.49,4.53,45.09,21.45,2.37,6.07,2,14.38.78,21.19-5.37,30.19-22.79,49-47.29,60.44-25.25,11.79-51.87,16.14-78.91,18.13-2.48.18-5,0-8,0-3.24,11.25-6.42,22.28-10.09,35.06-8.34-12.43.22-23.51-.3-34.34L320.4,271.2c-.27,22-4.62,43.22-11.45,64-11.54,35.15-34.35,53.16-66.58,57.89-14.47,2.12-28.88,4.16-43.36.22-32.57-8.84-50.46-40.76-41-76.65,4.23-16.13,12.25-31,18.82-46.33.72-1.68,3.2-2.41,4.86-3.58Zm181.15-25.69c38.93-3,74.58-11.31,106.33-38.79-6.21-6.21-10.82-11.64-16.15-15.93-8-6.44-17-9.13-26.3-3.71-10.07,5.89-20.3,11.74-29.54,19.09C385.07,214.26,374.07,227.31,363.78,243.21Z"/><path class="cls-2" d="M386.27,128.83l-20.55-19.41,15.07-25,20.8,18.86Z"/><path class="cls-1" d="M363.78,243.21c10.29-15.9,21.29-29,34.34-39.34,9.24-7.35,19.47-13.2,29.54-19.09,9.27-5.42,18.31-2.73,26.3,3.71,5.33,4.29,9.94,9.72,16.15,15.93C438.36,231.9,402.71,240.25,363.78,243.21Z"/></g></g></svg>